<svg width="1200" height="800" viewBox="0 0 1200 800" xmlns="http://www.w3.org/2000/svg">
  <defs>
    <linearGradient id="sky" x1="0%" y1="0%" x2="0%" y2="100%">
      <stop offset="0%" stop-color="#0F172A"/>
      <stop offset="40%" stop-color="#1E3A8A"/>
      <stop offset="100%" stop-color="#0F172A"/>
    </linearGradient>
    <linearGradient id="chartFill" x1="0%" y1="0%" x2="0%" y2="100%">
      <stop offset="0%" stop-color="#FBCFE8" stop-opacity="0.9"/>
      <stop offset="100%" stop-color="#C084FC" stop-opacity="0.6"/>
    </linearGradient>
    <linearGradient id="chartLine" x1="0%" y1="0%" x2="100%" y2="0%">
      <stop offset="0%" stop-color="#34D399"/>
      <stop offset="100%" stop-color="#FBBF24"/>
    </linearGradient>
  </defs>
  <rect width="1200" height="800" fill="url(#sky)"/>
  <g opacity="0.35">
    <path d="M0 620 L1200 480" stroke="rgba(148,163,184,0.2)" stroke-width="2" stroke-dasharray="12 12"/>
    <path d="M0 680 L1200 540" stroke="rgba(148,163,184,0.2)" stroke-width="2" stroke-dasharray="12 12"/>
    <path d="M0 740 L1200 600" stroke="rgba(148,163,184,0.2)" stroke-width="2" stroke-dasharray="12 12"/>
  </g>
  <rect x="120" y="180" width="960" height="440" rx="32" fill="rgba(15,23,42,0.75)" stroke="rgba(248,250,252,0.08)" stroke-width="2"/>
  <g transform="translate(160 220)">
    <polyline points="0,320 120,300 240,260 360,240 480,200 600,180 720,130 840,80 960,40" fill="none" stroke="url(#chartLine)" stroke-width="8" stroke-linecap="round" stroke-linejoin="round"/>
    <polygon points="0,320 120,300 240,260 360,240 480,200 600,180 720,130 840,80 960,40 960,360 0,360" fill="url(#chartFill)" opacity="0.65"/>
    <g fill="rgba(248,250,252,0.4)" font-family="Space Grotesk, 'Segoe UI', sans-serif" font-size="20">
      <text x="0" y="360">2010</text>
      <text x="220" y="360">2012</text>
      <text x="440" y="360">2014</text>
      <text x="660" y="360">2016</text>
      <text x="880" y="360">2018</text>
    </g>
  </g>
  <text x="150" y="140" font-family="Space Grotesk, 'Segoe UI', sans-serif" font-size="64" font-weight="700" fill="white">
    Ireland Housing Market
  </text>
  <text x="150" y="190" font-family="Space Grotesk, 'Segoe UI', sans-serif" font-size="28" fill="rgba(248,250,252,0.8)">
    Visuals exploring affordability, inflation, and wages.
  </text>
</svg>

